<?xml version="1.0" encoding="utf-8"?>
<!-- Generator: Adobe Illustrator 27.0.1, SVG Export Plug-In . SVG Version: 6.00 Build 0)  -->
<svg version="1.1" id="Layer_1" xmlns="http://www.w3.org/2000/svg" xmlns:xlink="http://www.w3.org/1999/xlink" x="0px" y="0px"
	 viewBox="0 0 170.1 170.1" style="enable-background:new 0 0 170.1 170.1;" xml:space="preserve">
<style type="text/css">
	.st0{display:none;}
	.st1{display:inline;}
	.st2{fill:#E79224;}
	.st3{fill:url(#SVGID_1_);}
	.st4{fill:#FDF173;}
	.st5{fill:#92C9ED;}
	.st6{fill:url(#SVGID_00000168801958318712577870000011233928564685245118_);}
	.st7{fill:#0E9AD7;}
	.st8{clip-path:url(#SVGID_00000078005708489737368310000011916643507333236647_);}
	.st9{fill:url(#SVGID_00000167355281157809716890000006149701685182736278_);}
	.st10{fill:#98D1A1;}
	.st11{fill:#69BF6D;}
	.st12{fill:url(#SVGID_00000134252273748224437660000001154114782900458910_);}
	.st13{fill:#EF473D;}
	.st14{fill:#761216;}
	.st15{fill:#FFFFFF;}
	.st16{fill:#EAEAEC;}
	.st17{fill:#EFBE23;}
	.st18{fill:#E4A228;}
</style>
<g transform="matrix(1.3333 0 0 -1.3333 0 100.08)" class="st0">
	<g transform="matrix(.29378 0 0 .29378 0 .042373)" class="st1">
		
			<linearGradient id="SVGID_1_" gradientUnits="userSpaceOnUse" x1="-527.4781" y1="-1041.5189" x2="-526.4781" y2="-1041.5189" gradientTransform="matrix(-2.741878e-06 -64.3558 -64.3558 2.741878e-06 -66544.5312 -33865.5586)">
			<stop  offset="0" style="stop-color:#FFE500"/>
			<stop  offset="1" style="stop-color:#FCB721"/>
		</linearGradient>
		<path class="st3" d="M563.5,83.1H403V-88.8h160.6V83.1z"/>
		<g transform="translate(581.1 200.72)">
			<path class="st4" d="M-153-90.2l-25.2-27.4h160.6L6.3-90.1L-153-90.2"/>
		</g>
		<g transform="translate(382.23 193.19)">
			<path class="st5" d="M-153-90.2L5-68.2l-13.2-37.9l-149.6-23.7l0.6,27.1L-153-90.2"/>
		</g>
		
			<linearGradient id="SVGID_00000035497517941346499930000008610451065499560349_" gradientUnits="userSpaceOnUse" x1="-531.1285" y1="-1029.3417" x2="-530.1285" y2="-1029.3417" gradientTransform="matrix(63.0945 -50.6699 -50.6699 -63.0945 -18418.2695 -91794.7266)">
			<stop  offset="0" style="stop-color:#1B8DCD"/>
			<stop  offset="1" style="stop-color:#00659F"/>
		</linearGradient>
		<path style="fill:url(#SVGID_00000035497517941346499930000008610451065499560349_);" d="M374,87.1l21.9-154L240.1-88.8l-21,148.9
			l9.1,7.1L374,87.1"/>
		<g transform="translate(540.18 215.15)">
			<path class="st7" d="M-153-90.2l0.1-0.9l20.5-157.7l-11.9-33.3l-21.9,154"/>
		</g>
		<g>
			<defs>
				<polyline id="SVGID_00000057134413871859662660000011743451461496003007_" points="95.9,116.1 235.7,53 172.6,-90.2 32.8,-27.1 
					95.9,116.1 				"/>
			</defs>
			<clipPath id="SVGID_00000160169284641180505560000008578738848288205234_">
				<use xlink:href="#SVGID_00000057134413871859662660000011743451461496003007_"  style="overflow:visible;"/>
			</clipPath>
			<g style="clip-path:url(#SVGID_00000160169284641180505560000008578738848288205234_);">
				
					<linearGradient id="SVGID_00000129187720586298379670000008270308238758415763_" gradientUnits="userSpaceOnUse" x1="-525.393" y1="-1043.8467" x2="-524.393" y2="-1043.8467" gradientTransform="matrix(-2.350181e-06 -56.3808 -56.3808 2.350181e-06 -58635.7539 -29563.2832)">
					<stop  offset="0" style="stop-color:#28A149"/>
					<stop  offset="1" style="stop-color:#008B53"/>
				</linearGradient>
				<path style="fill:url(#SVGID_00000129187720586298379670000008270308238758415763_);" d="M-153,165.2h740.4V-90.1H-153V165.2z"
					/>
			</g>
		</g>
		<g transform="translate(234.31 255.36)">
			<path class="st10" d="M-153-90.2l14.5-49L1.4-202.3l-11.8,46.8L-153-90.2"/>
		</g>
		<g transform="translate(234.31 255.36)">
			<path class="st11" d="M-153-90.2l-56.3-133.6l7.7-58.7l63.1,143.2L-153-90.2"/>
		</g>
		
			<linearGradient id="SVGID_00000047773590246752653310000010808149176952812681_" gradientUnits="userSpaceOnUse" x1="-525.373" y1="-1039.3298" x2="-524.373" y2="-1039.3298" gradientTransform="matrix(9.6961 -58.5352 -58.5352 -9.6961 -55817.9062 -40757.3086)">
			<stop  offset="0" style="stop-color:#D92231"/>
			<stop  offset="1" style="stop-color:#BB2435"/>
		</linearGradient>
		<path style="fill:url(#SVGID_00000047773590246752653310000010808149176952812681_);" d="M3.3,87.3l23-151.6l-154.5-24.2
			L-153,63.4L3.3,87.3"/>
		<g transform="translate(0 153.57)">
			<path class="st13" d="M-153-90.2l10.9,54.1l156,25L3.3-66.3L-153-90.2"/>
		</g>
		<g transform="translate(166.88 232.7)">
			<path class="st14" d="M-153-90.2l22.9-153l-10.4-53.7l-23,151.6L-153-90.2"/>
		</g>
		<g transform="translate(500.47 147.76)">
			<path class="st15" d="M-153-90.2c-0.7,4.8-2.3,8.4-5,10.8c-2.1,1.9-4.8,2.9-7.8,2.9c-0.8,0-1.6-0.1-2.4-0.2c-4-0.6-7.1-2.5-9-5.5
				c-1.4-2.2-2.1-4.9-2.1-8c0-1.2,0.1-2.4,0.3-3.8l5.7-40.1l-44.8-6.6l-5.7,40.1c-0.7,4.7-2.3,8.3-4.9,10.7c-2.1,2-4.7,3-7.7,3
				c-0.7,0-1.4-0.1-2.2-0.2c-4.2-0.6-7.4-2.4-9.4-5.5c-1.4-2.2-2.1-4.9-2.1-8.1c0-1.2,0.1-2.5,0.3-3.8l15.3-104.2
				c0.7-4.8,2.4-8.4,5.1-10.8c2.1-1.8,4.8-2.8,7.9-2.8c0.8,0,1.7,0.1,2.6,0.2c3.9,0.6,6.8,2.4,8.6,5.5c1.3,2.2,1.9,4.8,1.9,7.8
				c0,1.2-0.1,2.5-0.3,3.8l-6.3,41.2l44.8,6.6l6.3-41.2c0.7-4.7,2.3-8.4,5.1-10.7c2.2-1.9,4.8-2.9,7.9-2.8c0.8,0,1.6,0.1,2.4,0.2
				c4,0.6,7.1,2.4,9,5.5c1.3,2.2,2,4.8,2,7.9c0,1.2-0.1,2.5-0.3,3.8L-153-90.2z M-335.1-147.9c-5.3-12.4-12.2-20.9-20.8-25.6
				c-4.6-2.5-9.3-3.8-14.2-3.8c-4.2,0-8.6,0.9-13.1,2.9c-9.8,4.2-15.9,10.9-18.5,20.3c-0.9,3.2-1.3,6.5-1.3,10
				c0,6.9,1.7,14.6,5.3,22.8c5.4,12.7,12.4,21.4,21,26.1c4.6,2.5,9.3,3.8,14.2,3.8c4.3,0,8.7-1,13.3-2.9
				c9.7-4.1,15.8-10.9,18.4-20.4c0.8-3.1,1.3-6.4,1.3-9.8C-329.7-131.5-331.5-139.3-335.1-147.9z M-319.8-85.5
				c-5.5,5.8-12.2,10.4-20,13.7c-7.8,3.3-15.6,4.9-23.5,4.9l-0.4,0c-8-0.1-16-1.8-23.8-5.4v0c-8.2-3.6-15.3-8.6-21.4-15
				c-6.1-6.4-11-14.1-14.8-23.1c-3.8-8.9-5.8-17.7-6.2-26.6c0-1-0.1-2-0.1-3c0-7.8,1.3-15.5,4-23c2.8-7.9,7-14.8,12.6-20.5
				c5.5-5.8,12.3-10.4,20.4-13.8v0c7.7-3.3,15.5-4.9,23.5-4.9h0.2c8,0,15.9,1.8,23.8,5.1l0,0l0,0c8.2,3.7,15.4,8.7,21.6,15.1
				c6.1,6.4,11.1,14.1,14.9,23c3.8,8.9,5.9,17.8,6.2,26.6c0,0.9,0,1.7,0,2.5c0,7.9-1.4,15.7-4.2,23.4
				C-310.1-98.2-314.3-91.3-319.8-85.5z M-513.8-187.9c-1.2,1.5-2.9,2.5-4.9,3.2c-2.1,0.7-4.5,1.1-7.5,1.1c-2.8,0-5.9-0.3-9.5-0.9
				l-40.8-7c0.4,3.1,2,7.3,4.7,12.3c3.1,5.6,7.6,12.4,13.6,20.3l0,0c2.1,2.7,3.6,4.8,4.7,6.3c0.8,1,1.9,2.4,3.3,4.3
				c9.3,12.2,15.1,22.2,17.3,30c1.3,4.4,2,8.9,2.3,13.4c0.1,1.2,0.1,2.5,0.1,3.7c0,3.2-0.3,6.4-0.8,9.5c-0.5,2.8-1.2,5.2-2.1,7.1
				c-0.9,1.9-2.1,3.3-3.6,4.2c-1.7,1-4,1.4-7.1,1.4c-2.5,0-5.6-0.3-9.1-0.9l-47.1-8.1c-5.7-1-9.9-2.7-12.6-5.2
				c-2.1-2-3.2-4.6-3.2-7.6c0-0.8,0.1-1.6,0.2-2.4c0.7-4,2.8-6.9,6.1-8.4c2-0.9,4.4-1.3,7.2-1.3c1.9,0,4,0.2,6.3,0.6l39.5,6.7
				c0.1-0.7,0.1-1.4,0.1-2.1c0-2.5-0.4-4.9-1.3-7.2c-1.2-3.3-4.1-7.9-8.8-13.9c-1.3-1.6-3.3-4.1-6.1-7.6
				c-10.6-12.9-18.3-23.9-22.9-33c0,0,0,0,0,0c0,0,0,0,0,0c-3.3-6.3-5.5-12.5-6.8-18.6c-0.7-3.6-1.1-7-1.1-10.3
				c0-2.3,0.2-4.6,0.6-6.8c0.5-3.2,1.3-5.8,2.4-7.8c1-2.1,2.4-3.6,4-4.5c1.5-0.8,3.8-1.2,6.9-1.2c3.9,0,9.3,0.6,16,1.7l42.8,7.3
				c7.6,1.3,12.8,3.1,15.9,5.6c2.4,2,3.7,4.8,3.7,8c0,0.8-0.1,1.7-0.2,2.6C-511.8-191.2-512.5-189.4-513.8-187.9L-513.8-187.9z
				 M-550-148.3L-550-148.3C-550-148.3-550-148.3-550-148.3L-550-148.3L-550-148.3z M5.6-183.2c-6.2-7.4-14.4-11.1-25.1-11.1
				c-10.8,0-19.1,3.7-25.3,11.1c-6.2,7.4-9.3,17.6-9.3,30.6c0,13.3,3.1,23.6,9.2,31.1c6.2,7.5,14.5,11.2,25.3,11.2
				c10.7,0,19-3.7,25.1-11.2c6.1-7.5,9.3-17.8,9.3-31.1C14.8-165.6,11.7-175.8,5.6-183.2z M38.6-126.5c-3.2,8-7.9,15.1-14.1,21.5
				c-6,6.1-12.6,10.7-20,13.7c-7.4,3.1-15.4,4.6-24,4.6c-8.6,0-16.7-1.5-24.2-4.6c-7.5-3.1-14.1-7.7-20-13.7
				c-6.2-6.3-10.9-13.4-14-21.4c-3.1-8-4.7-16.7-4.7-26.1c0-9.3,1.6-18,4.7-26c3.1-8,7.8-15.3,14-21.6c5.8-6,12.4-10.5,19.8-13.5
				c7.4-3,15.6-4.6,24.4-4.6c8.5,0,16.5,1.5,23.9,4.6c7.4,3,14.1,7.5,20.1,13.5c6.2,6.4,10.9,13.6,14.1,21.6
				c3.2,8,4.8,16.7,4.8,26.1C43.3-143.2,41.7-134.5,38.6-126.5"/>
		</g>
	</g>
</g>
<path id="path118" class="st15" d="M12,2.1l0,1.8c0,1,3,34.7,6.5,74.8l6.5,73l29.3,8.2c16.1,4.5,29.7,8.2,30.1,8.3
	c0.4,0,14.1-3.7,30.5-8.2c26.2-7.3,29.8-8.4,29.9-9.3c0.3-1.3,13.1-146.1,13.1-147.6l0-1.1H85H12z"/>
<path id="path88" class="st16" d="M54.7,160.5l-29.6-8.3l-0.4-2.2C24.4,148.1,11.6,4.7,11.6,2.9c0-0.7,7.5-0.8,73.5-0.8
	c69.7,0,73.5,0,73.5,0.9c0,3.5-13.3,148.8-13.6,149.1c-0.4,0.4-57.7,16.3-59.6,16.6C84.7,168.7,71,165,54.7,160.5L54.7,160.5z
	 M103.7,131.3c9.9-2.7,18.2-5.1,18.4-5.3c0.2-0.2,1.3-12,2.6-26.2s2.4-26.8,2.5-28l0.3-2.1H106H84.5v9.1v9.1h11.6h11.6l-0.2,1.1
	c-0.1,0.6-0.6,5.9-1.1,11.7c-0.5,6.1-1.1,10.8-1.4,11.1c-0.3,0.3-5,1.8-10.5,3.2l-9.9,2.6v9.3c0,6.3,0.2,9.3,0.5,9.3
	C85.4,136.2,93.8,134,103.7,131.3L103.7,131.3z M127.2,58.2c-0.3-2.4-3.2-34.8-3.2-36.1c0-0.7-1.7-0.8-19.5-0.8H85v9.5v9.5l8.8,0.3
	c4.8,0.2,9.9,0.5,11.3,0.6l2.5,0.3l0.6,7.5c0.3,4.1,0.7,8.3,0.9,9.3l0.3,1.8h9.1h9.1L127.2,58.2z"/>
<path id="path80" class="st17" d="M54.5,160l-29.3-8.2l-6.5-73C15,38.6,12.1,5,12.1,3.9l0-1.8h73h73l0,1.1
	c0,1.5-12.8,146.4-13.1,147.6c-0.2,0.9-3.7,2-29.9,9.3c-16.4,4.5-30.1,8.2-30.5,8.2C84.1,168.2,70.6,164.5,54.5,160L54.5,160z
	 M103.7,131.6c10.1-2.8,18.6-5.4,18.8-5.6c0.2-0.3,1.4-12.7,2.7-27.5s2.5-27.4,2.6-27.9c0.2-0.8-1.5-0.9-31.3-0.9H65l1.3-14.2
	c0.7-7.8,1.4-14.2,1.4-14.2c0,0,4.6-0.2,10.3-0.3c9.2-0.3,28.3,0.5,28.9,1.1c0.2,0.2,1.8,15.6,1.8,17.7c0,1,0.1,1,9.6,1h9.6
	l-0.2-2.1c-0.1-1.2-0.9-10.1-1.8-19.9l-1.6-17.8L87.4,21c-29.3-0.1-36.9,0-36.9,0.5c0,0.3-0.2,2.5-0.5,4.8c-0.6,5.6-5.4,59.5-5.4,61
	v1.2H76h31.4l-0.3,1.8c-0.2,1-0.6,6.2-1.1,11.5c-0.4,5.3-0.9,9.8-1.1,9.9c-0.5,0.4-18.9,5.4-20.1,5.4c-0.5,0-5.3-1.2-10.6-2.6
	l-9.6-2.6l-0.4-4.1c-0.2-2.3-0.5-5.5-0.7-7.2l-0.3-3.1h-9.3h-9.3l0,1.8c0,3.5,2.3,26.8,2.6,27.1c0.4,0.4,36.2,10.5,37.3,10.5
	C85,136.7,93.6,134.4,103.7,131.6L103.7,131.6z"/>
<path id="path78" class="st18" d="M54.5,160l-29.3-8.2l-6.5-73C15,38.6,12.1,5,12.1,3.9l0-1.8h73h73l0,1.1
	c0,1.5-12.8,146.4-13.1,147.6c-0.2,0.9-3.7,2-29.9,9.3c-16.4,4.5-30.1,8.2-30.5,8.2C84.1,168.2,70.6,164.5,54.5,160L54.5,160z
	 M109.2,149c12.9-3.6,23.7-6.7,24-7c0.5-0.5,11.6-122.6,11.6-126.7l0-1.4h-29.8H85v3.5v3.5H67.8c-13.5,0-17.3,0.1-17.3,0.6
	c0,0.3-0.2,2.5-0.5,4.8c-0.6,5.6-5.4,59.5-5.4,61v1.2h20.2H85v14.3c0,11.1-0.1,14.3-0.6,14.3c-0.3,0-4.9-1.2-10.2-2.6l-9.6-2.6
	l-0.4-4.1c-0.2-2.3-0.5-5.5-0.7-7.2l-0.3-3.1h-9.3h-9.3l0,1.8c0.1,5.3,2.3,26.9,2.9,27.2c0.3,0.2,8.9,2.7,19.1,5.5l18.5,5.1v9.3
	c0,5.1,0.2,9.3,0.3,9.3C85.6,155.5,96.3,152.6,109.2,149L109.2,149z M66.3,55.6c0.7-7.7,1.4-14.1,1.5-14.2c0.1-0.1,4-0.3,8.7-0.4
	l8.5-0.2v14.5v14.5H75H65L66.3,55.6z"/>
</svg>
