<?xml version="1.0" encoding="utf-8"?>
<!-- Generator: Adobe Illustrator 27.0.1, SVG Export Plug-In . SVG Version: 6.00 Build 0)  -->
<svg version="1.1" id="Layer_1" xmlns="http://www.w3.org/2000/svg" xmlns:xlink="http://www.w3.org/1999/xlink" x="0px" y="0px"
	 viewBox="0 0 170.1 170.1" style="enable-background:new 0 0 170.1 170.1;" xml:space="preserve">
<style type="text/css">
	.st0{display:none;}
	.st1{display:inline;}
	.st2{fill:#E79224;}
	.st3{fill:url(#SVGID_1_);}
	.st4{fill:#FDF173;}
	.st5{fill:#92C9ED;}
	.st6{fill:url(#SVGID_00000158727616171447341910000008844803585053613237_);}
	.st7{fill:#0E9AD7;}
	.st8{clip-path:url(#SVGID_00000178202672791608397090000008484573803239537055_);}
	.st9{fill:url(#SVGID_00000121272233955755615170000011951560338046013874_);}
	.st10{fill:#98D1A1;}
	.st11{fill:#69BF6D;}
	.st12{fill:url(#SVGID_00000108310311984309407920000008209832847029057717_);}
	.st13{fill:#EF473D;}
	.st14{fill:#761216;}
	.st15{fill:#FFFFFF;}
	.st16{clip-path:url(#SVGID_00000083774942902142538150000002535106416837644212_);}
	.st17{fill:url(#path3462_00000012466957899492978490000017982347794355667865_);}
	.st18{clip-path:url(#SVGID_00000150788738771806907290000012009049216420552857_);}
	.st19{fill:#787BB3;}
	.st20{clip-path:url(#SVGID_00000058567777222063831680000006215939759374727831_);}
	.st21{fill:#010101;}
</style>
<g transform="matrix(1.3333 0 0 -1.3333 0 100.08)" class="st0">
	<g transform="matrix(.29378 0 0 .29378 0 .042373)" class="st1">
		<g transform="translate(740.38 200.84)">
			<path class="st2" d="M-153-90.2v-175.6l-24.2-23.7v171.7L-153-90.2"/>
		</g>
		
			<linearGradient id="SVGID_1_" gradientUnits="userSpaceOnUse" x1="-527.4781" y1="-1041.5189" x2="-526.4781" y2="-1041.5189" gradientTransform="matrix(-2.741878e-06 -64.3558 -64.3558 2.741878e-06 -66544.5312 -33865.5586)">
			<stop  offset="0" style="stop-color:#FFE500"/>
			<stop  offset="1" style="stop-color:#FCB721"/>
		</linearGradient>
		<path class="st3" d="M563.5,83.1H403V-88.8h160.6V83.1z"/>
		<g transform="translate(581.1 200.72)">
			<path class="st4" d="M-153-90.2l-25.2-27.4h160.6L6.3-90.1L-153-90.2"/>
		</g>
		<g transform="translate(382.23 193.19)">
			<path class="st5" d="M-153-90.2L5-68.2l-13.2-37.9l-149.6-23.7l0.6,27.1L-153-90.2"/>
		</g>
		
			<linearGradient id="SVGID_00000075874137657071829690000002258943145837345670_" gradientUnits="userSpaceOnUse" x1="-531.1285" y1="-1029.3417" x2="-530.1285" y2="-1029.3417" gradientTransform="matrix(63.0945 -50.6699 -50.6699 -63.0945 -18418.2695 -91794.7266)">
			<stop  offset="0" style="stop-color:#1B8DCD"/>
			<stop  offset="1" style="stop-color:#00659F"/>
		</linearGradient>
		<path style="fill:url(#SVGID_00000075874137657071829690000002258943145837345670_);" d="M374,87.1l21.9-154L240.1-88.8l-21,148.9
			l9.1,7.1L374,87.1"/>
		<g transform="translate(540.18 215.15)">
			<path class="st7" d="M-153-90.2l0.1-0.9l20.5-157.7l-11.9-33.3l-21.9,154"/>
		</g>
		<g>
			<defs>
				<polyline id="SVGID_00000129909509877279162520000007965849363268552067_" points="95.9,116.1 235.7,53 172.6,-90.2 32.8,-27.1 
					95.9,116.1 				"/>
			</defs>
			<clipPath id="SVGID_00000035496500205462149490000015935318241713740196_">
				<use xlink:href="#SVGID_00000129909509877279162520000007965849363268552067_"  style="overflow:visible;"/>
			</clipPath>
			<g style="clip-path:url(#SVGID_00000035496500205462149490000015935318241713740196_);">
				
					<linearGradient id="SVGID_00000108994672357793669890000012539776266362914197_" gradientUnits="userSpaceOnUse" x1="-525.393" y1="-1043.8467" x2="-524.393" y2="-1043.8467" gradientTransform="matrix(-2.350181e-06 -56.3808 -56.3808 2.350181e-06 -58635.7539 -29563.2832)">
					<stop  offset="0" style="stop-color:#28A149"/>
					<stop  offset="1" style="stop-color:#008B53"/>
				</linearGradient>
				<path style="fill:url(#SVGID_00000108994672357793669890000012539776266362914197_);" d="M-153,165.2h740.4V-90.1H-153V165.2z"
					/>
			</g>
		</g>
		<g transform="translate(234.31 255.36)">
			<path class="st10" d="M-153-90.2l14.5-49L1.4-202.3l-11.8,46.8L-153-90.2"/>
		</g>
		<g transform="translate(234.31 255.36)">
			<path class="st11" d="M-153-90.2l-56.3-133.6l7.7-58.7l63.1,143.2L-153-90.2"/>
		</g>
		
			<linearGradient id="SVGID_00000064351468757144038350000002887809561411728553_" gradientUnits="userSpaceOnUse" x1="-525.373" y1="-1039.3298" x2="-524.373" y2="-1039.3298" gradientTransform="matrix(9.6961 -58.5352 -58.5352 -9.6961 -55817.9062 -40757.3086)">
			<stop  offset="0" style="stop-color:#D92231"/>
			<stop  offset="1" style="stop-color:#BB2435"/>
		</linearGradient>
		<path style="fill:url(#SVGID_00000064351468757144038350000002887809561411728553_);" d="M3.3,87.3l23-151.6l-154.5-24.2
			L-153,63.4L3.3,87.3"/>
		<g transform="translate(0 153.57)">
			<path class="st13" d="M-153-90.2l10.9,54.1l156,25L3.3-66.3L-153-90.2"/>
		</g>
		<g transform="translate(166.88 232.7)">
			<path class="st14" d="M-153-90.2l22.9-153l-10.4-53.7l-23,151.6L-153-90.2"/>
		</g>
		<g transform="translate(500.47 147.76)">
			<path class="st15" d="M-153-90.2c-0.7,4.8-2.3,8.4-5,10.8c-2.1,1.9-4.8,2.9-7.8,2.9c-0.8,0-1.6-0.1-2.4-0.2c-4-0.6-7.1-2.5-9-5.5
				c-1.4-2.2-2.1-4.9-2.1-8c0-1.2,0.1-2.4,0.3-3.8l5.7-40.1l-44.8-6.6l-5.7,40.1c-0.7,4.7-2.3,8.3-4.9,10.7c-2.1,2-4.7,3-7.7,3
				c-0.7,0-1.4-0.1-2.2-0.2c-4.2-0.6-7.4-2.4-9.4-5.5c-1.4-2.2-2.1-4.9-2.1-8.1c0-1.2,0.1-2.5,0.3-3.8l15.3-104.2
				c0.7-4.8,2.4-8.4,5.1-10.8c2.1-1.8,4.8-2.8,7.9-2.8c0.8,0,1.7,0.1,2.6,0.2c3.9,0.6,6.8,2.4,8.6,5.5c1.3,2.2,1.9,4.8,1.9,7.8
				c0,1.2-0.1,2.5-0.3,3.8l-6.3,41.2l44.8,6.6l6.3-41.2c0.7-4.7,2.3-8.4,5.1-10.7c2.2-1.9,4.8-2.9,7.9-2.8c0.8,0,1.6,0.1,2.4,0.2
				c4,0.6,7.1,2.4,9,5.5c1.3,2.2,2,4.8,2,7.9c0,1.2-0.1,2.5-0.3,3.8L-153-90.2z M-335.1-147.9c-5.3-12.4-12.2-20.9-20.8-25.6
				c-4.6-2.5-9.3-3.8-14.2-3.8c-4.2,0-8.6,0.9-13.1,2.9c-9.8,4.2-15.9,10.9-18.5,20.3c-0.9,3.2-1.3,6.5-1.3,10
				c0,6.9,1.7,14.6,5.3,22.8c5.4,12.7,12.4,21.4,21,26.1c4.6,2.5,9.3,3.8,14.2,3.8c4.3,0,8.7-1,13.3-2.9
				c9.7-4.1,15.8-10.9,18.4-20.4c0.8-3.1,1.3-6.4,1.3-9.8C-329.7-131.5-331.5-139.3-335.1-147.9z M-319.8-85.5
				c-5.5,5.8-12.2,10.4-20,13.7c-7.8,3.3-15.6,4.9-23.5,4.9l-0.4,0c-8-0.1-16-1.8-23.8-5.4v0c-8.2-3.6-15.3-8.6-21.4-15
				c-6.1-6.4-11-14.1-14.8-23.1c-3.8-8.9-5.8-17.7-6.2-26.6c0-1-0.1-2-0.1-3c0-7.8,1.3-15.5,4-23c2.8-7.9,7-14.8,12.6-20.5
				c5.5-5.8,12.3-10.4,20.4-13.8v0c7.7-3.3,15.5-4.9,23.5-4.9h0.2c8,0,15.9,1.8,23.8,5.1l0,0l0,0c8.2,3.7,15.4,8.7,21.6,15.1
				c6.1,6.4,11.1,14.1,14.9,23c3.8,8.9,5.9,17.8,6.2,26.6c0,0.9,0,1.7,0,2.5c0,7.9-1.4,15.7-4.2,23.4
				C-310.1-98.2-314.3-91.3-319.8-85.5z M-513.8-187.9c-1.2,1.5-2.9,2.5-4.9,3.2c-2.1,0.7-4.5,1.1-7.5,1.1c-2.8,0-5.9-0.3-9.5-0.9
				l-40.8-7c0.4,3.1,2,7.3,4.7,12.3c3.1,5.6,7.6,12.4,13.6,20.3l0,0c2.1,2.7,3.6,4.8,4.7,6.3c0.8,1,1.9,2.4,3.3,4.3
				c9.3,12.2,15.1,22.2,17.3,30c1.3,4.4,2,8.9,2.3,13.4c0.1,1.2,0.1,2.5,0.1,3.7c0,3.2-0.3,6.4-0.8,9.5c-0.5,2.8-1.2,5.2-2.1,7.1
				c-0.9,1.9-2.1,3.3-3.6,4.2c-1.7,1-4,1.4-7.1,1.4c-2.5,0-5.6-0.3-9.1-0.9l-47.1-8.1c-5.7-1-9.9-2.7-12.6-5.2
				c-2.1-2-3.2-4.6-3.2-7.6c0-0.8,0.1-1.6,0.2-2.4c0.7-4,2.8-6.9,6.1-8.4c2-0.9,4.4-1.3,7.2-1.3c1.9,0,4,0.2,6.3,0.6l39.5,6.7
				c0.1-0.7,0.1-1.4,0.1-2.1c0-2.5-0.4-4.9-1.3-7.2c-1.2-3.3-4.1-7.9-8.8-13.9c-1.3-1.6-3.3-4.1-6.1-7.6
				c-10.6-12.9-18.3-23.9-22.9-33c0,0,0,0,0,0c0,0,0,0,0,0c-3.3-6.3-5.5-12.5-6.8-18.6c-0.7-3.6-1.1-7-1.1-10.3
				c0-2.3,0.2-4.6,0.6-6.8c0.5-3.2,1.3-5.8,2.4-7.8c1-2.1,2.4-3.6,4-4.5c1.5-0.8,3.8-1.2,6.9-1.2c3.9,0,9.3,0.6,16,1.7l42.8,7.3
				c7.6,1.3,12.8,3.1,15.9,5.6c2.4,2,3.7,4.8,3.7,8c0,0.8-0.1,1.7-0.2,2.6C-511.8-191.2-512.5-189.4-513.8-187.9L-513.8-187.9z
				 M-550-148.3L-550-148.3C-550-148.3-550-148.3-550-148.3L-550-148.3L-550-148.3z M5.6-183.2c-6.2-7.4-14.4-11.1-25.1-11.1
				c-10.8,0-19.1,3.7-25.3,11.1c-6.2,7.4-9.3,17.6-9.3,30.6c0,13.3,3.1,23.6,9.2,31.1c6.2,7.5,14.5,11.2,25.3,11.2
				c10.7,0,19-3.7,25.1-11.2c6.1-7.5,9.3-17.8,9.3-31.1C14.8-165.6,11.7-175.8,5.6-183.2z M38.6-126.5c-3.2,8-7.9,15.1-14.1,21.5
				c-6,6.1-12.6,10.7-20,13.7c-7.4,3.1-15.4,4.6-24,4.6c-8.6,0-16.7-1.5-24.2-4.6c-7.5-3.1-14.1-7.7-20-13.7
				c-6.2-6.3-10.9-13.4-14-21.4c-3.1-8-4.7-16.7-4.7-26.1c0-9.3,1.6-18,4.7-26c3.1-8,7.8-15.3,14-21.6c5.8-6,12.4-10.5,19.8-13.5
				c7.4-3,15.6-4.6,24.4-4.6c8.5,0,16.5,1.5,23.9,4.6c7.4,3,14.1,7.5,20.1,13.5c6.2,6.4,10.9,13.6,14.1,21.6
				c3.2,8,4.8,16.7,4.8,26.1C43.3-143.2,41.7-134.5,38.6-126.5"/>
		</g>
	</g>
</g>
<g id="g3438" transform="matrix(1.25,0,0,-1.25,-4.4,394.29875)">
	<g id="g3440">
		<g>
			<defs>
				<path id="SVGID_00000096737723727197027090000009054317257344854196_" d="M6.9,247.4c0-20.7,28.9-37.4,64.6-37.4l0,0
					c35.7,0,64.6,16.8,64.6,37.4l0,0c0,20.7-28.9,37.4-64.6,37.4l0,0C35.8,284.8,6.9,268.1,6.9,247.4"/>
			</defs>
			<clipPath id="SVGID_00000090270027997246301590000006016899170554922156_">
				<use xlink:href="#SVGID_00000096737723727197027090000009054317257344854196_"  style="overflow:visible;"/>
			</clipPath>
			<g id="g3442" style="clip-path:url(#SVGID_00000090270027997246301590000006016899170554922156_);">
				<g id="g3448">
					<g id="g3450">
						
							<radialGradient id="path3462_00000145024377864517795810000017914824199937853866_" cx="-166.3038" cy="-88.4878" r="0.2303" gradientTransform="matrix(460.7878 0 0 -507.3038 76676.5 -44618.5156)" gradientUnits="userSpaceOnUse">
							<stop  offset="0" style="stop-color:#AFB2D5"/>
							<stop  offset="0.3" style="stop-color:#AFB2D5"/>
							<stop  offset="0.75" style="stop-color:#484D8A"/>
							<stop  offset="1" style="stop-color:#484D8A"/>
						</radialGradient>
						<path id="path3462" style="fill:url(#path3462_00000145024377864517795810000017914824199937853866_);" d="M6.9,247.4
							c0-20.7,28.9-37.4,64.6-37.4l0,0c35.7,0,64.6,16.8,64.6,37.4l0,0c0,20.7-28.9,37.4-64.6,37.4l0,0
							C35.8,284.8,6.9,268.1,6.9,247.4"/>
					</g>
				</g>
			</g>
		</g>
	</g>
	<g id="g3464">
		<g>
			<defs>
				<rect id="SVGID_00000096032381590816000790000006499035186121840003_" x="-12.6" y="195.3" width="168.4" height="104.3"/>
			</defs>
			<clipPath id="SVGID_00000170992073534930397070000005088868810344519321_">
				<use xlink:href="#SVGID_00000096032381590816000790000006499035186121840003_"  style="overflow:visible;"/>
			</clipPath>
			<g id="g3466" style="clip-path:url(#SVGID_00000170992073534930397070000005088868810344519321_);">
				<g id="g3472" transform="translate(288,27.3594)">
					<path id="path3474" class="st19" d="M-216.4,185.4c34.3,0,62.1,15.5,62.1,34.7c0,19.1-27.8,34.7-62.1,34.7
						s-62.1-15.5-62.1-34.7C-278.6,200.9-250.8,185.4-216.4,185.4"/>
				</g>
			</g>
		</g>
	</g>
	<g id="g3476">
		<g>
			<defs>
				<rect id="SVGID_00000010993448407297968830000009942253321811767475_" x="-12.6" y="195.3" width="168.4" height="104.3"/>
			</defs>
			<clipPath id="SVGID_00000145055369602341086180000002912843539747069098_">
				<use xlink:href="#SVGID_00000010993448407297968830000009942253321811767475_"  style="overflow:visible;"/>
			</clipPath>
			<g id="g3478" style="clip-path:url(#SVGID_00000145055369602341086180000002912843539747069098_);">
				<g id="g3484" transform="translate(161.7344,145.3066)">
					<path id="path3486" class="st21" d="M-119.7,97.8c2.8,0,4.9,0.6,6.3,1.7c1.3,1.1,2.2,3.1,2.7,5.8c0.4,2.5,0.3,4.3-0.5,5.2
						c-0.8,1-2.5,1.5-5.1,1.5h-4.5l-2.5-14.2H-119.7z M-134.5,80.4c-0.2,0-0.4,0.1-0.5,0.3c-0.1,0.2-0.2,0.4-0.1,0.6l6.6,37.5
						c0.1,0.4,0.4,0.6,0.7,0.6h14.3c4.5,0,7.8-1.3,9.9-4c2.1-2.7,2.8-6.4,1.9-11c-0.3-1.9-0.9-3.7-1.7-5.3c-0.8-1.6-1.9-3.1-3.2-4.4
						c-1.5-1.6-3.3-2.7-5.2-3.4c-1.9-0.7-4.3-1-7.1-1h-5.8l-1.7-9.4c-0.1-0.4-0.4-0.6-0.7-0.6H-134.5z"/>
				</g>
				<g id="g3488" transform="translate(159.2236,197.3071)">
					<path id="path3490" class="st15" d="M-117.8,59.2h3.9c3.1,0,4.2-0.8,4.6-1.2c0.6-0.8,0.7-2.3,0.3-4.6c-0.4-2.5-1.3-4.3-2.4-5.3
						c-1.2-1-3.2-1.5-5.8-1.5h-2.8L-117.8,59.2z M-111,68.2h-14.3c-0.7,0-1.2-0.5-1.4-1.2l-6.6-37.5c-0.1-0.5,0-0.9,0.3-1.3
						c0.3-0.4,0.7-0.6,1.1-0.6h7.4c0.7,0,1.2,0.5,1.4,1.2l1.5,8.7h5.2c2.9,0,5.4,0.4,7.4,1c2,0.7,3.8,1.9,5.5,3.6
						c1.3,1.4,2.5,2.9,3.3,4.5c0.8,1.7,1.4,3.5,1.8,5.5c0.9,4.9,0.2,8.9-2.1,11.7C-102.8,66.8-106.3,68.2-111,68.2 M-121.7,45h4.5
						c3,0,5.2,0.6,6.7,1.9c1.5,1.2,2.5,3.3,3,6.2c0.5,2.8,0.3,4.8-0.7,5.9c-0.9,1.1-2.8,1.7-5.6,1.7h-5.1L-121.7,45 M-111,66.7
						c4.3,0,7.4-1.2,9.4-3.7c2-2.5,2.6-5.9,1.8-10.4c-0.3-1.8-0.9-3.5-1.6-5c-0.8-1.5-1.8-2.9-3-4.2c-1.5-1.5-3.1-2.6-4.9-3.3
						c-1.8-0.7-4.1-1-6.9-1h-6.4l-1.8-10h-7.4l6.6,37.5H-111"/>
				</g>
				<g id="g3492" transform="translate(311.583,116.3066)">
					<path id="path3494" class="st21" d="M-234.5,119.3c-0.2,0-0.4,0.1-0.5,0.3c-0.1,0.2-0.2,0.4-0.1,0.6l2.9,16.6
						c0.3,1.6,0.2,2.7-0.2,3.2c-0.2,0.3-1,0.8-3.2,0.8h-5.3l-3.7-20.9c-0.1-0.4-0.4-0.6-0.7-0.6h-7.4c-0.2,0-0.4,0.1-0.5,0.3
						c-0.1,0.2-0.2,0.4-0.1,0.6l6.6,37.5c0.1,0.4,0.4,0.6,0.7,0.6h7.4c0.2,0,0.4-0.1,0.5-0.3c0.1-0.2,0.2-0.4,0.1-0.6l-1.6-9.1h5.7
						c4.4,0,7.3-0.8,9-2.6c1.8-1.8,2.3-4.6,1.6-8.4l-3.1-17.5c-0.1-0.4-0.4-0.6-0.7-0.6H-234.5z"/>
				</g>
				<g id="g3496" transform="translate(293.6611,271.0571)">
					<path id="path3498" class="st15" d="M-220.8,4.4h-7.4c-0.7,0-1.2-0.5-1.4-1.2l-6.6-37.5c-0.1-0.5,0-0.9,0.3-1.3
						s0.7-0.6,1.1-0.6h7.4c0.7,0,1.2,0.5,1.4,1.2l3.6,20.2h4.7c2.2,0,2.6-0.5,2.7-0.5c0.1-0.2,0.3-0.9,0-2.5l-2.9-16.6
						c-0.1-0.5,0-0.9,0.3-1.3c0.3-0.4,0.7-0.6,1.1-0.6h7.5c0.7,0,1.2,0.5,1.4,1.2l3.1,17.5c0.7,4.1,0.1,7.2-1.8,9.1
						c-1.9,1.9-5,2.8-9.5,2.8h-4.9l1.4,8.1c0.1,0.5,0,0.9-0.3,1.3C-220,4.2-220.4,4.4-220.8,4.4 M-220.8,2.9l-1.8-10h6.6
						c4.1,0,7-0.8,8.5-2.4c1.6-1.6,2-4.2,1.4-7.7l-3.1-17.5h-7.5l2.9,16.6c0.3,1.9,0.2,3.2-0.4,3.9c-0.6,0.7-1.8,1-3.7,1h-5.9
						l-3.8-21.5h-7.4l6.6,37.5H-220.8"/>
				</g>
				<g id="g3500" transform="translate(409.5498,145.3066)">
					<path id="path3502" class="st21" d="M-309.6,97.8c2.8,0,4.9,0.6,6.3,1.7c1.3,1.1,2.2,3.1,2.7,5.8c0.4,2.5,0.3,4.3-0.5,5.2
						c-0.8,1-2.5,1.5-5.1,1.5h-4.5l-2.5-14.2H-309.6z M-324.3,80.4c-0.2,0-0.4,0.1-0.5,0.3c-0.1,0.2-0.2,0.4-0.1,0.6l6.6,37.5
						c0.1,0.4,0.4,0.6,0.7,0.6h14.3c4.5,0,7.8-1.3,9.9-4c2.1-2.7,2.8-6.4,1.9-11c-0.3-1.9-0.9-3.7-1.7-5.3c-0.8-1.6-1.9-3.1-3.2-4.4
						c-1.5-1.6-3.3-2.7-5.2-3.4c-1.9-0.7-4.3-1-7.1-1h-5.8l-1.7-9.4c-0.1-0.4-0.4-0.6-0.7-0.6H-324.3z"/>
				</g>
				<g id="g3504" transform="translate(407.0391,197.3071)">
					<path id="path3506" class="st15" d="M-307.7,59.2h3.9c3.1,0,4.2-0.8,4.6-1.2c0.6-0.8,0.7-2.3,0.3-4.6c-0.4-2.5-1.3-4.3-2.4-5.3
						c-1.2-1-3.2-1.5-5.8-1.5h-2.8L-307.7,59.2z M-300.9,68.2h-14.3c-0.7,0-1.2-0.5-1.4-1.2l-6.6-37.5c-0.1-0.5,0-0.9,0.3-1.3
						c0.3-0.4,0.7-0.6,1.1-0.6h7.4c0.7,0,1.2,0.5,1.4,1.2l1.5,8.7h5.2c2.9,0,5.4,0.4,7.4,1c2,0.7,3.8,1.9,5.5,3.6
						c1.3,1.4,2.5,2.9,3.3,4.5c0.8,1.7,1.4,3.5,1.8,5.5c0.9,4.9,0.2,8.9-2.1,11.7C-292.7,66.8-296.2,68.2-300.9,68.2 M-311.6,45h4.5
						c3,0,5.2,0.6,6.7,1.9c1.5,1.2,2.5,3.3,3,6.2c0.5,2.8,0.3,4.8-0.7,5.9c-0.9,1.1-2.8,1.7-5.6,1.7h-5.1L-311.6,45 M-300.9,66.7
						c4.3,0,7.4-1.2,9.4-3.7c2-2.5,2.6-5.9,1.8-10.4c-0.3-1.8-0.9-3.5-1.6-5c-0.8-1.5-1.8-2.9-3-4.2c-1.5-1.5-3.1-2.6-4.9-3.3
						c-1.8-0.7-4.1-1-6.9-1h-6.4l-1.8-10h-7.4l6.6,37.5H-300.9"/>
				</g>
			</g>
		</g>
	</g>
</g>
</svg>
