<?xml version="1.0" encoding="utf-8"?>
<!-- Generator: Adobe Illustrator 27.0.1, SVG Export Plug-In . SVG Version: 6.00 Build 0)  -->
<svg version="1.1" id="Layer_1" xmlns="http://www.w3.org/2000/svg" xmlns:xlink="http://www.w3.org/1999/xlink" x="0px" y="0px"
	 viewBox="0 0 170.1 170.1" style="enable-background:new 0 0 170.1 170.1;" xml:space="preserve">
<style type="text/css">
	.st0{display:none;}
	.st1{display:inline;}
	.st2{fill:#E79224;}
	.st3{fill:url(#SVGID_1_);}
	.st4{fill:#FDF173;}
	.st5{fill:#92C9ED;}
	.st6{fill:url(#SVGID_00000094605238767406480720000012750035124921058697_);}
	.st7{fill:#0E9AD7;}
	.st8{clip-path:url(#SVGID_00000126296736878315207230000017908905908642870705_);}
	.st9{fill:url(#SVGID_00000016051654234762768020000003405131641765993619_);}
	.st10{fill:#98D1A1;}
	.st11{fill:#69BF6D;}
	.st12{fill:url(#SVGID_00000046310583442885775000000002840837888485629328_);}
	.st13{fill:#EF473D;}
	.st14{fill:#761216;}
	.st15{fill:#FFFFFF;}
	.st16{fill:url(#SVGID_00000017518794013494925500000015963255222965662139_);}
	.st17{fill:url(#SVGID_00000150786149139242403440000015896189239153172377_);}
	.st18{clip-path:url(#SVGID_00000027604316843616017320000008177257853678423175_);}
	.st19{fill:url(#SVGID_00000024704966175580882300000006156267665032632714_);}
	.st20{fill:url(#SVGID_00000169530207003027383540000012868892552815956630_);}
</style>
<g transform="matrix(1.3333 0 0 -1.3333 0 100.08)" class="st0">
	<g transform="matrix(.29378 0 0 .29378 0 .042373)" class="st1">
		
			<linearGradient id="SVGID_1_" gradientUnits="userSpaceOnUse" x1="-527.4781" y1="-1041.5189" x2="-526.4781" y2="-1041.5189" gradientTransform="matrix(-2.741878e-06 -64.3558 -64.3558 2.741878e-06 -66544.5312 -33865.5586)">
			<stop  offset="0" style="stop-color:#FFE500"/>
			<stop  offset="1" style="stop-color:#FCB721"/>
		</linearGradient>
		<path class="st3" d="M563.5,83.1H403V-88.8h160.6V83.1z"/>
		<g transform="translate(581.1 200.72)">
			<path class="st4" d="M-153-90.2l-25.2-27.4h160.6L6.3-90.1L-153-90.2"/>
		</g>
		<g transform="translate(382.23 193.19)">
			<path class="st5" d="M-153-90.2L5-68.2l-13.2-37.9l-149.6-23.7l0.6,27.1L-153-90.2"/>
		</g>
		
			<linearGradient id="SVGID_00000089562724472721758320000001740316174951450257_" gradientUnits="userSpaceOnUse" x1="-531.1285" y1="-1029.3417" x2="-530.1285" y2="-1029.3417" gradientTransform="matrix(63.0945 -50.6699 -50.6699 -63.0945 -18418.2695 -91794.7266)">
			<stop  offset="0" style="stop-color:#1B8DCD"/>
			<stop  offset="1" style="stop-color:#00659F"/>
		</linearGradient>
		<path style="fill:url(#SVGID_00000089562724472721758320000001740316174951450257_);" d="M374,87.1l21.9-154L240.1-88.8l-21,148.9
			l9.1,7.1L374,87.1"/>
		<g transform="translate(540.18 215.15)">
			<path class="st7" d="M-153-90.2l0.1-0.9l20.5-157.7l-11.9-33.3l-21.9,154"/>
		</g>
		<g>
			<defs>
				<polyline id="SVGID_00000151536481451000846410000002869178239835895938_" points="95.9,116.1 235.7,53 172.6,-90.2 32.8,-27.1 
					95.9,116.1 				"/>
			</defs>
			<clipPath id="SVGID_00000052082149894407945450000008504086523109568902_">
				<use xlink:href="#SVGID_00000151536481451000846410000002869178239835895938_"  style="overflow:visible;"/>
			</clipPath>
			<g style="clip-path:url(#SVGID_00000052082149894407945450000008504086523109568902_);">
				
					<linearGradient id="SVGID_00000128477658347971697250000001892575002840451486_" gradientUnits="userSpaceOnUse" x1="-525.393" y1="-1043.8467" x2="-524.393" y2="-1043.8467" gradientTransform="matrix(-2.350181e-06 -56.3808 -56.3808 2.350181e-06 -58635.7539 -29563.2832)">
					<stop  offset="0" style="stop-color:#28A149"/>
					<stop  offset="1" style="stop-color:#008B53"/>
				</linearGradient>
				<path style="fill:url(#SVGID_00000128477658347971697250000001892575002840451486_);" d="M-153,165.2h740.4V-90.1H-153V165.2z"
					/>
			</g>
		</g>
		<g transform="translate(234.31 255.36)">
			<path class="st10" d="M-153-90.2l14.5-49L1.4-202.3l-11.8,46.8L-153-90.2"/>
		</g>
		<g transform="translate(234.31 255.36)">
			<path class="st11" d="M-153-90.2l-56.3-133.6l7.7-58.7l63.1,143.2L-153-90.2"/>
		</g>
		
			<linearGradient id="SVGID_00000130619944006230345390000000535336040564678847_" gradientUnits="userSpaceOnUse" x1="-525.373" y1="-1039.3298" x2="-524.373" y2="-1039.3298" gradientTransform="matrix(9.6961 -58.5352 -58.5352 -9.6961 -55817.9062 -40757.3086)">
			<stop  offset="0" style="stop-color:#D92231"/>
			<stop  offset="1" style="stop-color:#BB2435"/>
		</linearGradient>
		<path style="fill:url(#SVGID_00000130619944006230345390000000535336040564678847_);" d="M3.3,87.3l23-151.6l-154.5-24.2
			L-153,63.4L3.3,87.3"/>
		<g transform="translate(0 153.57)">
			<path class="st13" d="M-153-90.2l10.9,54.1l156,25L3.3-66.3L-153-90.2"/>
		</g>
		<g transform="translate(166.88 232.7)">
			<path class="st14" d="M-153-90.2l22.9-153l-10.4-53.7l-23,151.6L-153-90.2"/>
		</g>
		<g transform="translate(500.47 147.76)">
			<path class="st15" d="M-153-90.2c-0.7,4.8-2.3,8.4-5,10.8c-2.1,1.9-4.8,2.9-7.8,2.9c-0.8,0-1.6-0.1-2.4-0.2c-4-0.6-7.1-2.5-9-5.5
				c-1.4-2.2-2.1-4.9-2.1-8c0-1.2,0.1-2.4,0.3-3.8l5.7-40.1l-44.8-6.6l-5.7,40.1c-0.7,4.7-2.3,8.3-4.9,10.7c-2.1,2-4.7,3-7.7,3
				c-0.7,0-1.4-0.1-2.2-0.2c-4.2-0.6-7.4-2.4-9.4-5.5c-1.4-2.2-2.1-4.9-2.1-8.1c0-1.2,0.1-2.5,0.3-3.8l15.3-104.2
				c0.7-4.8,2.4-8.4,5.1-10.8c2.1-1.8,4.8-2.8,7.9-2.8c0.8,0,1.7,0.1,2.6,0.2c3.9,0.6,6.8,2.4,8.6,5.5c1.3,2.2,1.9,4.8,1.9,7.8
				c0,1.2-0.1,2.5-0.3,3.8l-6.3,41.2l44.8,6.6l6.3-41.2c0.7-4.7,2.3-8.4,5.1-10.7c2.2-1.9,4.8-2.9,7.9-2.8c0.8,0,1.6,0.1,2.4,0.2
				c4,0.6,7.1,2.4,9,5.5c1.3,2.2,2,4.8,2,7.9c0,1.2-0.1,2.5-0.3,3.8L-153-90.2z M-335.1-147.9c-5.3-12.4-12.2-20.9-20.8-25.6
				c-4.6-2.5-9.3-3.8-14.2-3.8c-4.2,0-8.6,0.9-13.1,2.9c-9.8,4.2-15.9,10.9-18.5,20.3c-0.9,3.2-1.3,6.5-1.3,10
				c0,6.9,1.7,14.6,5.3,22.8c5.4,12.7,12.4,21.4,21,26.1c4.6,2.5,9.3,3.8,14.2,3.8c4.3,0,8.7-1,13.3-2.9
				c9.7-4.1,15.8-10.9,18.4-20.4c0.8-3.1,1.3-6.4,1.3-9.8C-329.7-131.5-331.5-139.3-335.1-147.9z M-319.8-85.5
				c-5.5,5.8-12.2,10.4-20,13.7c-7.8,3.3-15.6,4.9-23.5,4.9l-0.4,0c-8-0.1-16-1.8-23.8-5.4v0c-8.2-3.6-15.3-8.6-21.4-15
				c-6.1-6.4-11-14.1-14.8-23.1c-3.8-8.9-5.8-17.7-6.2-26.6c0-1-0.1-2-0.1-3c0-7.8,1.3-15.5,4-23c2.8-7.9,7-14.8,12.6-20.5
				c5.5-5.8,12.3-10.4,20.4-13.8v0c7.7-3.3,15.5-4.9,23.5-4.9h0.2c8,0,15.9,1.8,23.8,5.1l0,0l0,0c8.2,3.7,15.4,8.7,21.6,15.1
				c6.1,6.4,11.1,14.1,14.9,23c3.8,8.9,5.9,17.8,6.2,26.6c0,0.9,0,1.7,0,2.5c0,7.9-1.4,15.7-4.2,23.4
				C-310.1-98.2-314.3-91.3-319.8-85.5z M-513.8-187.9c-1.2,1.5-2.9,2.5-4.9,3.2c-2.1,0.7-4.5,1.1-7.5,1.1c-2.8,0-5.9-0.3-9.5-0.9
				l-40.8-7c0.4,3.1,2,7.3,4.7,12.3c3.1,5.6,7.6,12.4,13.6,20.3l0,0c2.1,2.7,3.6,4.8,4.7,6.3c0.8,1,1.9,2.4,3.3,4.3
				c9.3,12.2,15.1,22.2,17.3,30c1.3,4.4,2,8.9,2.3,13.4c0.1,1.2,0.1,2.5,0.1,3.7c0,3.2-0.3,6.4-0.8,9.5c-0.5,2.8-1.2,5.2-2.1,7.1
				c-0.9,1.9-2.1,3.3-3.6,4.2c-1.7,1-4,1.4-7.1,1.4c-2.5,0-5.6-0.3-9.1-0.9l-47.1-8.1c-5.7-1-9.9-2.7-12.6-5.2
				c-2.1-2-3.2-4.6-3.2-7.6c0-0.8,0.1-1.6,0.2-2.4c0.7-4,2.8-6.9,6.1-8.4c2-0.9,4.4-1.3,7.2-1.3c1.9,0,4,0.2,6.3,0.6l39.5,6.7
				c0.1-0.7,0.1-1.4,0.1-2.1c0-2.5-0.4-4.9-1.3-7.2c-1.2-3.3-4.1-7.9-8.8-13.9c-1.3-1.6-3.3-4.1-6.1-7.6
				c-10.6-12.9-18.3-23.9-22.9-33c0,0,0,0,0,0c0,0,0,0,0,0c-3.3-6.3-5.5-12.5-6.8-18.6c-0.7-3.6-1.1-7-1.1-10.3
				c0-2.3,0.2-4.6,0.6-6.8c0.5-3.2,1.3-5.8,2.4-7.8c1-2.1,2.4-3.6,4-4.5c1.5-0.8,3.8-1.2,6.9-1.2c3.9,0,9.3,0.6,16,1.7l42.8,7.3
				c7.6,1.3,12.8,3.1,15.9,5.6c2.4,2,3.7,4.8,3.7,8c0,0.8-0.1,1.7-0.2,2.6C-511.8-191.2-512.5-189.4-513.8-187.9L-513.8-187.9z
				 M-550-148.3L-550-148.3C-550-148.3-550-148.3-550-148.3L-550-148.3L-550-148.3z M5.6-183.2c-6.2-7.4-14.4-11.1-25.1-11.1
				c-10.8,0-19.1,3.7-25.3,11.1c-6.2,7.4-9.3,17.6-9.3,30.6c0,13.3,3.1,23.6,9.2,31.1c6.2,7.5,14.5,11.2,25.3,11.2
				c10.7,0,19-3.7,25.1-11.2c6.1-7.5,9.3-17.8,9.3-31.1C14.8-165.6,11.7-175.8,5.6-183.2z M38.6-126.5c-3.2,8-7.9,15.1-14.1,21.5
				c-6,6.1-12.6,10.7-20,13.7c-7.4,3.1-15.4,4.6-24,4.6c-8.6,0-16.7-1.5-24.2-4.6c-7.5-3.1-14.1-7.7-20-13.7
				c-6.2-6.3-10.9-13.4-14-21.4c-3.1-8-4.7-16.7-4.7-26.1c0-9.3,1.6-18,4.7-26c3.1-8,7.8-15.3,14-21.6c5.8-6,12.4-10.5,19.8-13.5
				c7.4-3,15.6-4.6,24.4-4.6c8.5,0,16.5,1.5,23.9,4.6c7.4,3,14.1,7.5,20.1,13.5c6.2,6.4,10.9,13.6,14.1,21.6
				c3.2,8,4.8,16.7,4.8,26.1C43.3-143.2,41.7-134.5,38.6-126.5"/>
		</g>
	</g>
</g>
<g transform="matrix(1.3333 0 0 -1.3333 0 100.08)">
	<g transform="matrix(.29378 0 0 .29378 0 .042373)">
		<g transform="translate(740.38 200.84)">
			<path class="st2" d="M-329-125.5v-92.2l-12.7-12.4v90.1L-329-125.5"/>
		</g>
		
			<linearGradient id="SVGID_00000038407773579538998280000011288726767959079604_" gradientUnits="userSpaceOnUse" x1="-527.1503" y1="-1039.5527" x2="-526.6255" y2="-1039.5527" gradientTransform="matrix(-2.741878e-06 -64.3558 -64.3558 2.741878e-06 -66544.5312 -33865.5586)">
			<stop  offset="0" style="stop-color:#FFE500"/>
			<stop  offset="1" style="stop-color:#FCB721"/>
		</linearGradient>
		<path style="fill:url(#SVGID_00000038407773579538998280000011288726767959079604_);" d="M398.8,60.9h-84.3v-90.2h84.3V60.9z"/>
		<g transform="translate(581.1 200.72)">
			<path class="st4" d="M-253.3-125.5l-13.2-14.4h84.3l12.5,14.5L-253.3-125.5"/>
		</g>
		<g transform="translate(382.23 193.19)">
			<path class="st5" d="M-158.8-121.9l82.9,11.5l-6.9-19.9l-78.5-12.5l0.3,14.2L-158.8-121.9"/>
		</g>
		
			<linearGradient id="SVGID_00000001654104068914303620000010170592349301572770_" gradientUnits="userSpaceOnUse" x1="-531.0753" y1="-1029.1809" x2="-530.5505" y2="-1029.1809" gradientTransform="matrix(63.0945 -50.6699 -50.6699 -63.0945 -18418.2695 -91794.7266)">
			<stop  offset="0" style="stop-color:#1B8DCD"/>
			<stop  offset="1" style="stop-color:#00659F"/>
		</linearGradient>
		<path style="fill:url(#SVGID_00000001654104068914303620000010170592349301572770_);" d="M299.4,63l11.5-80.8l-81.7-11.5l-11,78.1
			l4.8,3.7L299.4,63"/>
		<g transform="translate(540.18 215.15)">
			<path class="st7" d="M-233.9-132.3l0.1-0.5l10.7-82.8l-6.3-17.4l-11.5,80.8"/>
		</g>
		<g>
			<defs>
				<polyline id="SVGID_00000087381394766879359570000010588627644673974664_" points="153.4,78.2 226.8,45.1 193.7,-30.1 120.3,3 
					153.4,78.2 				"/>
			</defs>
			<clipPath id="SVGID_00000176040724755350541550000008718320261204251050_">
				<use xlink:href="#SVGID_00000087381394766879359570000010588627644673974664_"  style="overflow:visible;"/>
			</clipPath>
			<g style="clip-path:url(#SVGID_00000176040724755350541550000008718320261204251050_);">
				
					<linearGradient id="SVGID_00000152242910951742898290000000192731585346918316_" gradientUnits="userSpaceOnUse" x1="-525.2034" y1="-1043.8448" x2="-524.6786" y2="-1043.8448" gradientTransform="matrix(-2.350181e-06 -56.3808 -56.3808 2.350181e-06 -58635.7539 -29563.2832)">
					<stop  offset="0" style="stop-color:#28A149"/>
					<stop  offset="1" style="stop-color:#008B53"/>
				</linearGradient>
				<path style="fill:url(#SVGID_00000152242910951742898290000000192731585346918316_);" d="M22.8,103.9h388.5V-30H22.8V103.9z"/>
			</g>
		</g>
		<g transform="translate(234.31 255.36)">
			<path class="st10" d="M-88.5-151.4l7.6-25.7l73.4-33.1l-6.2,24.6L-88.5-151.4"/>
		</g>
		<g transform="translate(234.31 255.36)">
			<path class="st11" d="M-88.5-151.4l-29.5-70.1l4-30.8l33.1,75.2L-88.5-151.4"/>
		</g>
		
			<linearGradient id="SVGID_00000003819087674280117550000006281120537845006469_" gradientUnits="userSpaceOnUse" x1="-524.7023" y1="-1041.5861" x2="-524.1776" y2="-1041.5861" gradientTransform="matrix(9.6961 -58.5352 -58.5352 -9.6961 -55817.9062 -40757.3086)">
			<stop  offset="0" style="stop-color:#D92231"/>
			<stop  offset="1" style="stop-color:#BB2435"/>
		</linearGradient>
		<path style="fill:url(#SVGID_00000003819087674280117550000006281120537845006469_);" d="M104.9,63.1L117-16.5L35.9-29.2l-13,79.7
			L104.9,63.1"/>
		<g transform="translate(0 153.57)">
			<path class="st13" d="M22.8-103.1l5.7,28.4l81.9,13.1l-5.5-29L22.8-103.1"/>
		</g>
		<g transform="translate(166.88 232.7)">
			<path class="st14" d="M-56.5-140.7l12-80.3l-5.5-28.2L-62-169.6L-56.5-140.7"/>
		</g>
		<g transform="translate(500.47 147.76)">
			<path class="st15" d="M-215-100.3c-0.4,2.5-1.2,4.4-2.6,5.7c-1.1,1-2.5,1.5-4.1,1.5c-0.4,0-0.8,0-1.3-0.1
				c-2.1-0.3-3.7-1.3-4.7-2.9c-0.7-1.2-1.1-2.6-1.1-4.2c0-0.6,0.1-1.3,0.2-2l3-21l-23.5-3.5l-3,21c-0.4,2.4-1.2,4.3-2.6,5.6
				c-1.1,1-2.5,1.6-4,1.6c-0.4,0-0.7,0-1.1-0.1c-2.2-0.3-3.9-1.3-4.9-2.9c-0.7-1.2-1.1-2.6-1.1-4.2c0-0.6,0.1-1.3,0.2-2l8-54.7
				c0.4-2.5,1.2-4.4,2.7-5.7c1.1-1,2.5-1.5,4.2-1.4c0.4,0,0.9,0,1.4,0.1c2,0.3,3.6,1.3,4.5,2.9c0.7,1.2,1,2.5,1,4.1
				c0,0.6-0.1,1.3-0.2,2l-3.3,21.6l23.5,3.5l3.3-21.6c0.4-2.5,1.2-4.4,2.7-5.6c1.1-1,2.5-1.5,4.1-1.5c0.4,0,0.8,0,1.3,0.1
				c2.1,0.3,3.7,1.3,4.7,2.9c0.7,1.1,1,2.5,1,4.1c0,0.6-0.1,1.3-0.2,2L-215-100.3z M-310.6-130.6c-2.8-6.5-6.4-11-10.9-13.5
				c-2.4-1.3-4.9-2-7.5-2c-2.2,0-4.5,0.5-6.9,1.5c-5.1,2.2-8.3,5.7-9.7,10.7c-0.5,1.7-0.7,3.4-0.7,5.3c0,3.6,0.9,7.6,2.8,12
				c2.8,6.7,6.5,11.2,11,13.7c2.4,1.3,4.9,2,7.5,2c2.3,0,4.6-0.5,7-1.5c5.1-2.2,8.3-5.7,9.6-10.7c0.4-1.6,0.7-3.3,0.7-5.2
				C-307.7-122-308.7-126.1-310.6-130.6z M-302.5-97.8c-2.9,3-6.4,5.4-10.5,7.2c-4.1,1.7-8.2,2.6-12.4,2.6l-0.2,0
				c-4.2,0-8.4-1-12.5-2.8v0c-4.3-1.9-8-4.5-11.2-7.9c-3.2-3.4-5.8-7.4-7.8-12.1c-2-4.7-3.1-9.3-3.3-14c0-0.5,0-1.1,0-1.6
				c0-4.1,0.7-8.1,2.1-12.1c1.5-4.2,3.7-7.8,6.6-10.8c2.9-3,6.5-5.4,10.7-7.2v0c4-1.7,8.2-2.6,12.3-2.6h0.1c4.2,0,8.4,0.9,12.5,2.7
				l0,0l0,0c4.3,1.9,8.1,4.6,11.3,7.9c3.2,3.4,5.8,7.4,7.8,12.1c2,4.7,3.1,9.3,3.2,14c0,0.4,0,0.9,0,1.3c0,4.2-0.7,8.3-2.2,12.3
				C-297.4-104.5-299.6-100.8-302.5-97.8z M-404.3-151.6c-0.6,0.8-1.5,1.3-2.5,1.7c-1.1,0.4-2.4,0.6-3.9,0.6c-1.4,0-3.1-0.2-5-0.5
				l-21.4-3.7c0.2,1.6,1,3.8,2.5,6.5c1.6,3,4,6.5,7.1,10.7l0,0c1.1,1.4,1.9,2.5,2.5,3.3c0.4,0.5,1,1.3,1.7,2.2
				c4.9,6.4,7.9,11.7,9.1,15.8c0.7,2.3,1.1,4.7,1.2,7c0,0.6,0.1,1.3,0.1,1.9c0,1.7-0.1,3.4-0.4,5c-0.3,1.5-0.6,2.7-1.1,3.7
				c-0.5,1-1.1,1.8-1.9,2.2c-0.9,0.5-2.1,0.8-3.7,0.8c-1.3,0-2.9-0.2-4.8-0.5l-24.7-4.2c-3-0.5-5.2-1.4-6.6-2.7
				c-1.1-1.1-1.7-2.4-1.7-4c0-0.4,0-0.8,0.1-1.3c0.3-2.1,1.4-3.6,3.2-4.4c1-0.5,2.3-0.7,3.8-0.7c1,0,2.1,0.1,3.3,0.3l20.7,3.5
				c0-0.4,0.1-0.7,0.1-1.1c0-1.3-0.2-2.6-0.7-3.8c-0.6-1.7-2.1-4.2-4.6-7.3c-0.7-0.9-1.8-2.2-3.2-4c-5.6-6.8-9.6-12.5-12-17.3
				c0,0,0,0,0,0c0,0,0,0,0,0c-1.7-3.3-2.9-6.6-3.6-9.8c-0.4-1.9-0.6-3.7-0.6-5.4c0-1.2,0.1-2.4,0.3-3.6c0.3-1.7,0.7-3,1.2-4.1
				c0.6-1.1,1.3-1.9,2.1-2.4c0.8-0.4,2-0.6,3.6-0.6c2.1,0,4.9,0.3,8.4,0.9l22.4,3.8c4,0.7,6.7,1.6,8.3,3c1.3,1.1,1.9,2.5,1.9,4.2
				c0,0.4,0,0.9-0.1,1.3C-403.3-153.3-403.7-152.3-404.3-151.6L-404.3-151.6z M-423.3-130.8L-423.3-130.8
				C-423.3-130.8-423.3-130.8-423.3-130.8L-423.3-130.8L-423.3-130.8z M-131.8-149.1c-3.2-3.9-7.6-5.8-13.2-5.8
				c-5.7,0-10,1.9-13.3,5.8c-3.2,3.9-4.9,9.2-4.9,16.1c0,7,1.6,12.4,4.9,16.3c3.2,3.9,7.6,5.9,13.3,5.9c5.6,0,10-1.9,13.2-5.9
				c3.2-3.9,4.9-9.3,4.9-16.3C-126.9-139.9-128.6-145.2-131.8-149.1z M-114.5-119.4c-1.7,4.2-4.1,7.9-7.4,11.3
				c-3.1,3.2-6.6,5.6-10.5,7.2c-3.9,1.6-8.1,2.4-12.6,2.4c-4.5,0-8.8-0.8-12.7-2.4c-3.9-1.6-7.4-4-10.5-7.2c-3.3-3.3-5.7-7-7.4-11.2
				c-1.6-4.2-2.4-8.8-2.4-13.7c0-4.9,0.8-9.4,2.5-13.7c1.6-4.2,4.1-8,7.3-11.4c3-3.1,6.5-5.5,10.4-7.1c3.9-1.6,8.2-2.4,12.8-2.4
				c4.5,0,8.7,0.8,12.6,2.4c3.9,1.6,7.4,4,10.5,7.1c3.3,3.3,5.7,7.1,7.4,11.3c1.7,4.2,2.5,8.8,2.5,13.7S-112.8-123.5-114.5-119.4"/>
		</g>
	</g>
</g>
</svg>
